<svg viewBox="0 0 330 200" xmlns="http://www.w3.org/2000/svg"><g><g><g><g><g><line x1="48.875" y1="177" x2="43.875" y2="177" style="visibility: inherit;" fill="rgb(0, 0, 0)" stroke="rgb(204, 204, 204)" stroke-width="1px"></line><line x1="48.875" y1="162.25" x2="43.875" y2="162.25" style="visibility: inherit;" fill="rgb(0, 0, 0)" stroke="rgb(204, 204, 204)" stroke-width="1px"></line><line x1="48.875" y1="147.5" x2="43.875" y2="147.5" style="visibility: inherit;" fill="rgb(0, 0, 0)" stroke="rgb(204, 204, 204)" stroke-width="1px"></line><line x1="48.875" y1="132.75" x2="43.875" y2="132.75" style="visibility: inherit;" fill="rgb(0, 0, 0)" stroke="rgb(204, 204, 204)" stroke-width="1px"></line><line x1="48.875" y1="118" x2="43.875" y2="118" style="visibility: inherit;" fill="rgb(0, 0, 0)" stroke="rgb(204, 204, 204)" stroke-width="1px"></line><line x1="48.875" y1="103.25" x2="43.875" y2="103.25" style="visibility: inherit;" fill="rgb(0, 0, 0)" stroke="rgb(204, 204, 204)" stroke-width="1px"></line><line x1="48.875" y1="88.5" x2="43.875" y2="88.5" style="visibility: inherit;" fill="rgb(0, 0, 0)" stroke="rgb(204, 204, 204)" stroke-width="1px"></line><line x1="48.875" y1="73.75" x2="43.875" y2="73.75" style="visibility: inherit;" fill="rgb(0, 0, 0)" stroke="rgb(204, 204, 204)" stroke-width="1px"></line><line x1="48.875" y1="59" x2="43.875" y2="59" style="visibility: inherit;" fill="rgb(0, 0, 0)" stroke="rgb(204, 204, 204)" stroke-width="1px"></line><line x1="48.875" y1="44.25" x2="43.875" y2="44.25" style="visibility: inherit;" fill="rgb(0, 0, 0)" stroke="rgb(204, 204, 204)" stroke-width="1px"></line><line x1="48.875" y1="29.5" x2="43.875" y2="29.5" style="visibility: inherit;" fill="rgb(0, 0, 0)" stroke="rgb(204, 204, 204)" stroke-width="1px"></line><line x1="48.875" y1="14.75" x2="43.875" y2="14.75" style="visibility: inherit;" fill="rgb(0, 0, 0)" stroke="rgb(204, 204, 204)" stroke-width="1px"></line><line x1="48.875" y1="0" x2="43.875" y2="0" style="visibility: inherit;" fill="rgb(0, 0, 0)" stroke="rgb(204, 204, 204)" stroke-width="1px"></line></g><g transform="translate(38.875, 0)"><text x="0" y="177" dx="0em" dy="0.3em" style="text-anchor: end; visibility: hidden; font-family: &quot;Helvetica Neue&quot;, sans-serif; font-size: 12px; font-weight: 200;" fill="rgb(50, 49, 63)" stroke="none" stroke-width="1px">84</text><text x="0" y="162.25" dx="0em" dy="0.3em" style="text-anchor: end; visibility: inherit; font-family: &quot;Helvetica Neue&quot;, sans-serif; font-size: 12px; font-weight: 200;" fill="rgb(50, 49, 63)" stroke="none" stroke-width="1px">84.5</text><text x="0" y="147.5" dx="0em" dy="0.3em" style="text-anchor: end; visibility: hidden; font-family: &quot;Helvetica Neue&quot;, sans-serif; font-size: 12px; font-weight: 200;" fill="rgb(50, 49, 63)" stroke="none" stroke-width="1px">85</text><text x="0" y="132.75" dx="0em" dy="0.3em" style="text-anchor: end; visibility: inherit; font-family: &quot;Helvetica Neue&quot;, sans-serif; font-size: 12px; font-weight: 200;" fill="rgb(50, 49, 63)" stroke="none" stroke-width="1px">85.5</text><text x="0" y="118" dx="0em" dy="0.3em" style="text-anchor: end; visibility: hidden; font-family: &quot;Helvetica Neue&quot;, sans-serif; font-size: 12px; font-weight: 200;" fill="rgb(50, 49, 63)" stroke="none" stroke-width="1px">86</text><text x="0" y="103.25" dx="0em" dy="0.3em" style="text-anchor: end; visibility: inherit; font-family: &quot;Helvetica Neue&quot;, sans-serif; font-size: 12px; font-weight: 200;" fill="rgb(50, 49, 63)" stroke="none" stroke-width="1px">86.5</text><text x="0" y="88.5" dx="0em" dy="0.3em" style="text-anchor: end; visibility: hidden; font-family: &quot;Helvetica Neue&quot;, sans-serif; font-size: 12px; font-weight: 200;" fill="rgb(50, 49, 63)" stroke="none" stroke-width="1px">87</text><text x="0" y="73.75" dx="0em" dy="0.3em" style="text-anchor: end; visibility: inherit; font-family: &quot;Helvetica Neue&quot;, sans-serif; font-size: 12px; font-weight: 200;" fill="rgb(50, 49, 63)" stroke="none" stroke-width="1px">87.5</text><text x="0" y="59" dx="0em" dy="0.3em" style="text-anchor: end; visibility: hidden; font-family: &quot;Helvetica Neue&quot;, sans-serif; font-size: 12px; font-weight: 200;" fill="rgb(50, 49, 63)" stroke="none" stroke-width="1px">88</text><text x="0" y="44.25" dx="0em" dy="0.3em" style="text-anchor: end; visibility: inherit; font-family: &quot;Helvetica Neue&quot;, sans-serif; font-size: 12px; font-weight: 200;" fill="rgb(50, 49, 63)" stroke="none" stroke-width="1px">88.5</text><text x="0" y="29.5" dx="0em" dy="0.3em" style="text-anchor: end; visibility: hidden; font-family: &quot;Helvetica Neue&quot;, sans-serif; font-size: 12px; font-weight: 200;" fill="rgb(50, 49, 63)" stroke="none" stroke-width="1px">89</text><text x="0" y="14.75" dx="0em" dy="0.3em" style="text-anchor: end; visibility: inherit; font-family: &quot;Helvetica Neue&quot;, sans-serif; font-size: 12px; font-weight: 200;" fill="rgb(50, 49, 63)" stroke="none" stroke-width="1px">89.5</text><text x="0" y="0" dx="0em" dy="0.3em" style="text-anchor: end; visibility: hidden; font-family: &quot;Helvetica Neue&quot;, sans-serif; font-size: 12px; font-weight: 200;" fill="rgb(50, 49, 63)" stroke="none" stroke-width="1px">90</text></g><line x1="48.875" y1="0" x2="48.875" y2="177" fill="rgb(0, 0, 0)" stroke="rgb(204, 204, 204)" stroke-width="1px"></line></g></g><g transform="translate(48, 0)" clip-path="url(#clip_0)"><clipPath id="clip_0"><rect width="281" height="177"></rect></clipPath><g><g><g><line x1="0" y1="0" x2="0" y2="177" fill="rgb(0, 0, 0)" stroke="rgb(60, 60, 60)" stroke-width="1px" opacity="0.25"></line><line x1="18.741666666666667" y1="0" x2="18.741666666666667" y2="177" fill="rgb(0, 0, 0)" stroke="rgb(60, 60, 60)" stroke-width="1px" opacity="0.25"></line><line x1="37.483333333333334" y1="0" x2="37.483333333333334" y2="177" fill="rgb(0, 0, 0)" stroke="rgb(60, 60, 60)" stroke-width="1px" opacity="0.25"></line><line x1="56.225" y1="0" x2="56.225" y2="177" fill="rgb(0, 0, 0)" stroke="rgb(60, 60, 60)" stroke-width="1px" opacity="0.25"></line><line x1="74.96666666666667" y1="0" x2="74.96666666666667" y2="177" fill="rgb(0, 0, 0)" stroke="rgb(60, 60, 60)" stroke-width="1px" opacity="0.25"></line><line x1="93.70833333333333" y1="0" x2="93.70833333333333" y2="177" fill="rgb(0, 0, 0)" stroke="rgb(60, 60, 60)" stroke-width="1px" opacity="0.25"></line><line x1="112.45" y1="0" x2="112.45" y2="177" fill="rgb(0, 0, 0)" stroke="rgb(60, 60, 60)" stroke-width="1px" opacity="0.25"></line><line x1="131.19166666666666" y1="0" x2="131.19166666666666" y2="177" fill="rgb(0, 0, 0)" stroke="rgb(60, 60, 60)" stroke-width="1px" opacity="0.25"></line><line x1="149.93333333333334" y1="0" x2="149.93333333333334" y2="177" fill="rgb(0, 0, 0)" stroke="rgb(60, 60, 60)" stroke-width="1px" opacity="0.25"></line><line x1="168.67499999999998" y1="0" x2="168.67499999999998" y2="177" fill="rgb(0, 0, 0)" stroke="rgb(60, 60, 60)" stroke-width="1px" opacity="0.25"></line><line x1="187.41666666666666" y1="0" x2="187.41666666666666" y2="177" fill="rgb(0, 0, 0)" stroke="rgb(60, 60, 60)" stroke-width="1px" opacity="0.25"></line><line x1="206.15833333333333" y1="0" x2="206.15833333333333" y2="177" fill="rgb(0, 0, 0)" stroke="rgb(60, 60, 60)" stroke-width="1px" opacity="0.25"></line><line x1="224.9" y1="0" x2="224.9" y2="177" fill="rgb(0, 0, 0)" stroke="rgb(60, 60, 60)" stroke-width="1px" opacity="0.25"></line><line x1="243.64166666666668" y1="0" x2="243.64166666666668" y2="177" fill="rgb(0, 0, 0)" stroke="rgb(60, 60, 60)" stroke-width="1px" opacity="0.25"></line><line x1="262.3833333333333" y1="0" x2="262.3833333333333" y2="177" fill="rgb(0, 0, 0)" stroke="rgb(60, 60, 60)" stroke-width="1px" opacity="0.25"></line><line x1="281.125" y1="0" x2="281.125" y2="177" fill="rgb(0, 0, 0)" stroke="rgb(60, 60, 60)" stroke-width="1px" opacity="0.25"></line></g><g><line x1="0" y1="177" x2="281.125" y2="177" fill="rgb(0, 0, 0)" stroke="rgb(60, 60, 60)" stroke-width="1px" opacity="0.25"></line><line x1="0" y1="162.25" x2="281.125" y2="162.25" fill="rgb(0, 0, 0)" stroke="rgb(60, 60, 60)" stroke-width="1px" opacity="0.25"></line><line x1="0" y1="147.5" x2="281.125" y2="147.5" fill="rgb(0, 0, 0)" stroke="rgb(60, 60, 60)" stroke-width="1px" opacity="0.25"></line><line x1="0" y1="132.75" x2="281.125" y2="132.75" fill="rgb(0, 0, 0)" stroke="rgb(60, 60, 60)" stroke-width="1px" opacity="0.25"></line><line x1="0" y1="118" x2="281.125" y2="118" fill="rgb(0, 0, 0)" stroke="rgb(60, 60, 60)" stroke-width="1px" opacity="0.25"></line><line x1="0" y1="103.25" x2="281.125" y2="103.25" fill="rgb(0, 0, 0)" stroke="rgb(60, 60, 60)" stroke-width="1px" opacity="0.25"></line><line x1="0" y1="88.5" x2="281.125" y2="88.5" fill="rgb(0, 0, 0)" stroke="rgb(60, 60, 60)" stroke-width="1px" opacity="0.25"></line><line x1="0" y1="73.75" x2="281.125" y2="73.75" fill="rgb(0, 0, 0)" stroke="rgb(60, 60, 60)" stroke-width="1px" opacity="0.25"></line><line x1="0" y1="59" x2="281.125" y2="59" fill="rgb(0, 0, 0)" stroke="rgb(60, 60, 60)" stroke-width="1px" opacity="0.25"></line><line x1="0" y1="44.25" x2="281.125" y2="44.25" fill="rgb(0, 0, 0)" stroke="rgb(60, 60, 60)" stroke-width="1px" opacity="0.25"></line><line x1="0" y1="29.5" x2="281.125" y2="29.5" fill="rgb(0, 0, 0)" stroke="rgb(60, 60, 60)" stroke-width="1px" opacity="0.25"></line><line x1="0" y1="14.75" x2="281.125" y2="14.75" fill="rgb(0, 0, 0)" stroke="rgb(60, 60, 60)" stroke-width="1px" opacity="0.25"></line><line x1="0" y1="0" x2="281.125" y2="0" fill="rgb(0, 0, 0)" stroke="rgb(60, 60, 60)" stroke-width="1px" opacity="0.25"></line></g></g></g><g><g><line x1="0" y1="2655" x2="281.125" y2="2655" fill="rgb(0, 0, 0)" stroke="rgb(153, 153, 153)" stroke-width="1.5px"></line></g></g><g><g><line x1="18.741666666666667" y1="0" x2="18.741666666666667" y2="177" fill="rgb(0, 0, 0)" stroke="rgb(153, 153, 153)" stroke-width="1.5px"></line></g></g><g><g><g><g><g><path stroke="rgb(0, 153, 136)" stroke-width="2px" d="M26.238333333333333,185.28394167758012L27.175416666666667,176.26402908484144L28.1125,169.6321783365537L29.049583333333334,163.1149112847241L29.986666666666668,157.8435347655786L30.923750000000002,152.84343639974227L31.860833333333332,148.19365677224786L32.797916666666666,144.03639423973664L33.735,140.71692133544875L34.67208333333333,136.88526139975156L35.60916666666667,133.52476309977055L36.54625,129.40873202944803L37.483333333333334,126.44378104824465L38.42041666666666,123.34369059358247L39.3575,120.32761845479672L40.294583333333335,117.99898313461884L41.23166666666667,116.62539610745952L42.168749999999996,114.66879664376964L43.10583333333333,111.5366629641463L44.04291666666667,110.03486764481828L44.980000000000004,108.11927803537654L45.91708333333333,106.002675972441L46.854166666666664,104.80347615193642L47.791250000000005,103.35257812940101L48.72833333333333,101.18448225994949L49.665416666666665,99.482555151934L50.6025,97.87154295116143L51.53958333333333,96.66906528466109L52.47666666666667,95.26337458690176L53.41375,93.90086532325336L54.350833333333334,92.56435494536933L55.28791666666666,90.44130461477403L56.225,89.49778295121311L57.162083333333335,87.63402285820989L58.09916666666667,86.75172719123347L59.036249999999995,84.97196679538874L59.973333333333336,84.84777205720097L60.91041666666667,84.06546407655702L61.847500000000004,82.84111407821248L62.78458333333333,81.96498186243512L63.721666666666664,81.5572377136467L64.65875,81.00595975464867L65.59583333333333,79.66068034497033L66.53291666666667,78.0749604530715L67.47,77.24146369859886L68.40708333333333,76.8829778895693L69.34416666666667,76.54986119663162L70.28125,75.85457339522473L71.21833333333333,74.91839589260309L72.15541666666667,74.54538568009293L73.0925,73.49585323422747L74.02958333333332,72.2999548726653L74.96666666666667,71.37004250367747L75.90375,70.41102544117192L76.84083333333332,70.21309780864839L77.77791666666667,69.45731119983755L78.715,69.14545147820357L79.65208333333334,69.31223121407032L80.58916666666667,68.32702531291493L81.52624999999999,68.23131955786599L82.46333333333334,67.91443870737592L83.40041666666667,66.75697163506992L84.33749999999999,66.25127770760437L85.27458333333334,65.85342317973807L86.21166666666666,64.76539710852627L87.14874999999999,64.41930296238164L88.08583333333334,64.1880594385618L89.02291666666666,63.36510922270739L89.96000000000001,62.753403912530516L90.89708333333333,62.43355479869035L91.83416666666666,62.24164533038618L92.77125000000001,61.20642518651296L93.70833333333333,60.23139753134137L94.64541666666666,60.14179872388303L95.58250000000001,59.686969798294996L96.51958333333333,59.50842058747318L97.45666666666666,59.401291060979915L98.39375,59.19549112828683L99.33083333333333,58.05749853439414L100.26791666666668,57.61066336624212L101.205,57.3897363376162L102.14208333333333,56.28993158528456L103.07916666666667,56.243401700194084L104.01625,55.720065983495445L104.95333333333333,55.28812937281228L105.89041666666667,55.40635998452704L106.8275,54.79318427684896L107.76458333333333,54.283666608589925L108.70166666666667,53.435364149724435L109.63875,53.233104170987005L110.57583333333332,52.75785261489689L111.51291666666667,53.01529353915298L112.45,52.06089731489813L113.38708333333334,51.51184661647768L114.32416666666667,51.55989880240631L115.26124999999999,51.51796900556488L116.19833333333334,51.020980377948135L117.13541666666667,50.2509564518662L118.07249999999999,50.614668414576585L119.00958333333334,50.19586556290611L119.94666666666667,49.82664867124009L120.88374999999999,49.652292608505775L121.82083333333334,48.86347486930259L122.75791666666666,48.0363786837886L123.69500000000001,47.49285687335936L124.63208333333334,48.06332124071466L125.56916666666666,47.98094318388192L126.50625000000001,48.3089989547629L127.44333333333333,47.821628315728674L128.38041666666666,47.15172332732783L129.3175,46.96206365948245L130.25458333333333,47.43812381580659L131.19166666666666,47.08672988030435L132.12875,46.59284908540917L133.06583333333333,45.824599832104695L134.00291666666666,45.434501415376275L134.94,46.09692979209686L135.87708333333333,45.62148642750421L136.81416666666667,45.24178223736172L137.75125,45.650989752573366L138.68833333333333,45.56620572898544L139.62541666666667,44.99633049305507L140.5625,44.46561903557895L141.49958333333333,43.88773476363252L142.43666666666667,43.09276048708594L143.37375,42.7808851740875L144.31083333333333,42.475824805624285L145.24791666666667,42.316375620679025L146.185,42.57460167856007L147.12208333333334,42.23402950078838L148.05916666666664,41.817402868930145L148.99625,41.6853620704791L149.93333333333334,41.25224202256081L150.87041666666664,41.77092223990368L151.8075,41.18564294355133L152.74458333333334,40.43340572462671L153.68166666666664,40.713441567100176L154.61875,40.26802007942052L155.55583333333334,40.42542386405839L156.49291666666667,40.14238352986072L157.43,39.595076724362L158.36708333333334,39.10158338813301L159.30416666666667,38.66396516959847L160.24124999999998,37.83512531757938L161.17833333333334,38.116373652461704L162.11541666666668,37.813291903879445L163.05249999999998,38.26847288402698L163.98958333333334,38.39996922846305L164.92666666666668,37.393593292449L165.86374999999998,38.04024075330136L166.80083333333334,37.57882584846527L167.73791666666668,38.08052915165729L168.67499999999998,37.06040702956841L169.61208333333335,37.627955643522625L170.54916666666668,36.60016663562547L171.48624999999998,36.10142841155073L172.42333333333332,36.08531993755528L173.36041666666668,36.33511225061878L174.29749999999999,36.461400602324034L175.23458333333332,36.395651396550846L176.17166666666668,35.90795815970819L177.10875000000001,35.2614466487546L178.04583333333332,35.77002716894026L178.98291666666668,35.367384343356434L179.92000000000002,35.314584963924005L180.85708333333332,34.97618383968245L181.79416666666665,34.56076981308672L182.73125000000002,34.476720676914454L183.66833333333332,34.44987823134383L184.60541666666666,33.82032977083762L185.54250000000002,33.82008329951421L186.47958333333332,33.7255872721889L187.41666666666666,33.52736743899695L188.35375000000002,34.09254961378869L189.29083333333332,33.60593260030464L190.22791666666666,34.02175352990935L191.16500000000002,33.56345494997686L192.10208333333333,33.57161026246649L193.03916666666666,33.8596379104095L193.97625,33.749320038726324L194.91333333333333,33.39999485526704L195.85041666666666,32.978116419996155L196.7875,32.5362030429155L197.72458333333336,32.318229088932895L198.66166666666666,32.65936549291061L199.59875,32.69884805551189L200.53583333333336,32.439403132623625L201.47291666666666,32.37817435027722L202.41,32.931203011045085L203.34708333333336,32.69684131346281L204.28416666666666,31.848433157218466L205.22125,31.174279010542193L206.15833333333333,31.383139488844847L207.09541666666667,30.706316493599786L208.0325,30.913665689617005L208.96958333333333,30.896462963574805L209.90666666666667,30.74461911115293L210.84375,30.582751691301127L211.78083333333333,30.22608381507382L212.71791666666667,30.10643123386842L213.655,30.789604895106464L214.59208333333333,29.97271313237647L215.52916666666667,29.930821788117214L216.46625,30.09447329747968L217.40333333333334,29.53204713766749L218.34041666666664,29.76077033582351L219.2775,29.685720929521608L220.21458333333334,29.994586854587965L221.15166666666664,30.085558265096864L222.08875,29.38517590144093L223.02583333333334,29.059294627778712L223.96291666666664,29.429944757624185L224.9,29.180504086020136L225.83708333333334,29.337561179639266L226.77416666666667,29.172248011494162L227.71125,28.860776785411787L228.64833333333334,29.051376654743166L229.58541666666667,28.59946765544322L230.52249999999998,28.72939189697678L231.45958333333334,28.595063116701795L232.39666666666668,28.773923245997707L233.33374999999998,28.834065251309482L234.27083333333334,28.280384524320937L235.20791666666668,28.278484620842306L236.14499999999998,28.348105787153912L237.08208333333334,28.05956995422602L238.01916666666668,27.41461770495758L238.95624999999998,27.876959709888354L239.89333333333335,27.800469343999083L240.83041666666668,27.518614736282416L241.76749999999998,27.9629449648165L242.70458333333332,28.205956065804116L243.64166666666668,28.210240509599743L244.57874999999999,26.89157704501767L245.51583333333332,26.760996031698L246.45291666666668,26.399512963257166L247.39000000000001,26.93758833215344L248.32708333333332,26.882950948510995L249.26416666666668,26.44909887721238L250.20125000000002,26.51909616714758L251.13833333333332,26.06567675546424L252.07541666666665,26.17110771343505L253.01250000000002,26.045579972299493L253.94958333333332,26.041024436016755L254.88666666666666,25.943942969715835L255.82375000000002,25.69699780087231L256.7608333333333,25.289283275249858L257.69791666666663,25.84679384210287L258.635,25.449922008386977L259.57208333333335,25.73080372993462L260.50916666666666,25.26239276042179L261.44625,25.099281359377983L262.3833333333333,25.26096194306845L263.3204166666667,25.357970293282477L264.2575,25.345414195012637L265.19458333333336,26.116432782144216L266.13166666666666,26.3430835462394L267.06874999999997,25.6533476863373L268.0058333333333,25.71133691990792L268.9429166666667,25.533847134854994L269.88,25.19139287563948L270.81708333333336,25.127442536907125" style="fill: none;" fill="none"></path></g></g></g></g><g opacity="0.2"><g><g><g><path stroke="rgb(0, 153, 136)" stroke-width="2px" d="M25.30125,177.43888092041016L26.238333333333333,171.83560943603516L27.175416666666667,162.87051010131836L28.1125,159.7445526123047L29.049583333333334,153.3744773864746L29.986666666666668,149.95368194580078L30.923750000000002,145.35308456420898L31.860833333333332,141.2244529724121L32.797916666666666,137.8034324645996L33.735,135.73911666870117L34.67208333333333,131.13874435424805L35.60916666666667,128.48452758789062L36.54625,123.23506164550781L37.483333333333334,121.99651718139648L38.42041666666666,118.69365692138672L39.3575,115.80356979370117L40.294583333333335,114.50605773925781L41.23166666666667,114.56502532958984L42.168749999999996,111.73390579223633L43.10583333333333,106.83847045898438L44.04291666666667,107.78217697143555L44.980000000000004,105.24589538574219L45.91708333333333,102.82777404785156L46.854166666666664,103.00467681884766L47.791250000000005,101.17623138427734L48.72833333333333,97.93233871459961L49.665416666666665,96.9296646118164L50.6025,95.45502471923828L51.53958333333333,94.86534881591797L52.47666666666667,93.15483856201172L53.41375,91.85710144042969L54.350833333333334,90.55958938598633L55.28791666666666,87.25672912597656L56.225,88.08250045776367L57.162083333333335,84.83838272094727L58.09916666666667,85.42828369140625L59.036249999999995,82.30232620239258L59.973333333333336,84.66147994995117L60.91041666666667,82.89200210571289L61.847500000000004,81.00458908081055L62.78458333333333,80.65078353881836L63.721666666666664,80.94562149047852L64.65875,80.17904281616211L65.59583333333333,77.64276123046875L66.53291666666667,75.69638061523438L67.47,75.99121856689453L68.40708333333333,76.34524917602539L69.34416666666667,76.05018615722656L70.28125,74.81164169311523L71.21833333333333,73.51412963867188L72.15541666666667,73.98587036132812L73.0925,71.92155456542969L74.02958333333332,70.50610733032227L74.96666666666667,69.97517395019531L75.90375,68.97249984741211L76.84083333333332,69.91620635986328L77.77791666666667,68.3236312866211L78.715,68.67766189575195L79.65208333333334,69.5624008178711L80.58916666666667,66.84921646118164L81.52624999999999,68.08776092529297L82.46333333333334,67.43911743164062L83.40041666666667,65.02077102661133L84.33749999999999,65.49273681640625L85.27458333333334,65.25664138793945L86.21166666666666,63.133358001708984L87.14874999999999,63.90016174316406L88.08583333333334,63.84119415283203L89.02291666666666,62.13068389892578L89.96000000000001,61.835845947265625L90.89708333333333,61.95378112792969L91.83416666666666,61.95378112792969L92.77125000000001,59.653594970703125L93.70833333333333,58.768856048583984L94.64541666666666,60.00740051269531L95.58250000000001,59.00472640991211L96.51958333333333,59.240596771240234L97.45666666666666,59.240596771240234L98.39375,58.88679122924805L99.33083333333333,56.35050964355469L100.26791666666668,56.94041061401367L101.205,57.058345794677734L102.14208333333333,54.64022445678711L103.07916666666667,56.173606872558594L104.01625,54.935062408447266L104.95333333333333,54.64022445678711L105.89041666666667,55.58370590209961L106.8275,53.87342071533203L107.76458333333333,53.51939010620117L108.70166666666667,52.16291046142578L109.63875,52.92971420288086L110.57583333333332,52.04497528076172L111.51291666666667,53.40145492553711L112.45,50.629302978515625L113.38708333333334,50.688270568847656L114.32416666666667,51.63197708129883L115.26124999999999,51.455074310302734L116.19833333333334,50.27549743652344L117.13541666666667,49.09592056274414L118.07249999999999,51.16023635864258L119.00958333333334,49.56766128540039L119.94666666666667,49.272823333740234L120.88374999999999,49.3907585144043L121.82083333333334,47.68024826049805L122.75791666666666,46.79573440551758L123.69500000000001,46.677574157714844L124.63208333333334,48.91901779174805L125.56916666666666,47.85737609863281L126.50625000000001,48.801082611083984L127.44333333333333,47.090572357177734L128.38041666666666,46.14686584472656L129.3175,46.677574157714844L130.25458333333333,48.15221405029297L131.19166666666666,46.55963897705078L132.12875,45.852027893066406L133.06583333333333,44.67222595214844L134.00291666666666,44.8493537902832L134.94,47.090572357177734L135.87708333333333,44.908321380615234L136.81416666666667,44.67222595214844L137.75125,46.264801025390625L138.68833333333333,45.439029693603516L139.62541666666667,44.141517639160156L140.5625,43.669551849365234L141.49958333333333,43.02090835571289L142.43666666666667,41.900299072265625L143.37375,42.313072204589844L144.31083333333333,42.01823425292969L145.24791666666667,42.07720184326172L146.185,42.96194076538086L147.12208333333334,41.72317123413086L148.05916666666664,41.19246292114258L148.99625,41.487300872802734L149.93333333333334,40.602561950683594L150.87041666666664,42.54894256591797L151.8075,40.30772399902344L152.74458333333334,39.305049896240234L153.68166666666664,41.13349533081055L154.61875,39.59988784790039L155.55583333333334,40.661529541015625L156.49291666666667,39.71782302856445L157.43,38.77411651611328L158.36708333333334,38.36134338378906L159.30416666666667,38.007537841796875L160.24124999999998,36.59186553955078L161.17833333333334,38.538246154785156L162.11541666666668,37.35866928100586L163.05249999999998,38.95124435424805L163.98958333333334,38.59721374511719L164.92666666666668,35.884029388427734L165.86374999999998,39.01021194458008L166.80083333333334,36.88670349121094L167.73791666666668,38.83308410644531L168.67499999999998,35.53022384643555L169.61208333333335,38.479278564453125L170.54916666666668,35.0584831237793L171.48624999999998,35.35332107543945L172.42333333333332,36.0611572265625L173.36041666666668,36.709800720214844L174.29749999999999,36.65083312988281L175.23458333333332,36.297027587890625L176.17166666666668,35.17641830444336L177.10875000000001,34.29167938232422L178.04583333333332,36.53289794921875L178.98291666666668,34.76342010498047L179.92000000000002,35.23538589477539L180.85708333333332,34.46858215332031L181.79416666666665,33.93764877319336L182.73125000000002,34.35064697265625L183.66833333333332,34.40961456298828L184.60541666666666,32.876007080078125L185.54250000000002,33.8197135925293L186.47958333333332,33.58384323120117L187.41666666666666,33.230037689208984L188.35375000000002,34.94032287597656L189.29083333333332,32.876007080078125L190.22791666666666,34.645484924316406L191.16500000000002,32.876007080078125L192.10208333333333,33.58384323120117L193.03916666666666,34.29167938232422L193.97625,33.58384323120117L194.91333333333333,32.876007080078125L195.85041666666666,32.345298767089844L196.7875,31.873332977294922L197.72458333333336,31.991268157958984L198.66166666666666,33.17107009887695L199.59875,32.75807189941406L200.53583333333336,32.050235748291016L201.47291666666666,32.28633117675781L202.41,33.760746002197266L203.34708333333336,32.345298767089844L204.28416666666666,30.575820922851562L205.22125,30.163047790527344L206.15833333333333,31.696430206298828L207.09541666666667,29.691082000732422L208.0325,31.224689483642578L208.96958333333333,30.87065887451172L209.90666666666667,30.51685333251953L210.84375,30.339950561523438L211.78083333333333,29.691082000732422L212.71791666666667,29.926952362060547L213.655,31.81436538696289L214.59208333333333,28.74737548828125L215.52916666666667,29.867984771728516L216.46625,30.339950561523438L217.40333333333334,28.68840789794922L218.34041666666664,30.10385513305664L219.2775,29.57314682006836L220.21458333333334,30.4578857421875L221.15166666666664,30.222015380859375L222.08875,28.33460235595703L223.02583333333334,28.570472717285156L223.96291666666664,29.985919952392578L224.9,28.80634307861328L225.83708333333334,29.57314682006836L226.77416666666667,28.924278259277344L227.71125,28.393569946289062L228.64833333333334,29.337276458740234L229.58541666666667,27.92160415649414L230.52249999999998,28.924278259277344L231.45958333333334,28.393569946289062L232.39666666666668,29.042213439941406L233.33374999999998,28.924278259277344L234.27083333333334,27.44986343383789L235.20791666666668,28.275634765625L236.14499999999998,28.452537536621094L237.08208333333334,27.626766204833984L238.01916666666668,26.447189331054688L238.95624999999998,28.570472717285156L239.89333333333335,27.685733795166016L240.83041666666668,27.09583282470703L241.76749999999998,28.629440307617188L242.70458333333332,28.570472717285156L243.64166666666668,28.21666717529297L244.57874999999999,24.91358184814453L245.51583333333332,26.56512451171875L246.45291666666668,25.857288360595703L247.39000000000001,27.744701385498047L248.32708333333332,26.800994873046875L249.26416666666668,25.798320770263672L250.20125000000002,26.62409210205078L251.13833333333332,25.385547637939453L252.07541666666665,26.329254150390625L253.01250000000002,25.857288360595703L253.94958333333332,26.034191131591797L254.88666666666666,25.798320770263672L255.82375000000002,25.326580047607422L256.7608333333333,24.677711486816406L257.69791666666663,26.683059692382812L258.635,24.8546142578125L259.57208333333335,26.15212631225586L260.50916666666666,24.559776306152344L261.44625,24.8546142578125L262.3833333333333,25.503482818603516L263.3204166666667,25.503482818603516L264.2575,25.326580047607422L265.19458333333336,27.272960662841797L266.13166666666666,26.683059692382812L267.06874999999997,24.618743896484375L268.0058333333333,25.798320770263672L268.9429166666667,25.26761245727539L269.88,24.677711486816406L270.81708333333336,25.031517028808594" style="fill: none;" fill="none"></path></g></g></g></g></g></g><g transform="translate(48, 177)" clip-path="url(#clip_1)"><clipPath id="clip_1"><rect width="281" height="23"></rect></clipPath><g><g><line x1="0" y1="0" x2="0" y2="5" style="visibility: inherit;" fill="rgb(0, 0, 0)" stroke="rgb(204, 204, 204)" stroke-width="1px"></line><line x1="18.741666666666667" y1="0" x2="18.741666666666667" y2="5" style="visibility: inherit;" fill="rgb(0, 0, 0)" stroke="rgb(204, 204, 204)" stroke-width="1px"></line><line x1="37.483333333333334" y1="0" x2="37.483333333333334" y2="5" style="visibility: inherit;" fill="rgb(0, 0, 0)" stroke="rgb(204, 204, 204)" stroke-width="1px"></line><line x1="56.225" y1="0" x2="56.225" y2="5" style="visibility: inherit;" fill="rgb(0, 0, 0)" stroke="rgb(204, 204, 204)" stroke-width="1px"></line><line x1="74.96666666666667" y1="0" x2="74.96666666666667" y2="5" style="visibility: inherit;" fill="rgb(0, 0, 0)" stroke="rgb(204, 204, 204)" stroke-width="1px"></line><line x1="93.70833333333333" y1="0" x2="93.70833333333333" y2="5" style="visibility: inherit;" fill="rgb(0, 0, 0)" stroke="rgb(204, 204, 204)" stroke-width="1px"></line><line x1="112.45" y1="0" x2="112.45" y2="5" style="visibility: inherit;" fill="rgb(0, 0, 0)" stroke="rgb(204, 204, 204)" stroke-width="1px"></line><line x1="131.19166666666666" y1="0" x2="131.19166666666666" y2="5" style="visibility: inherit;" fill="rgb(0, 0, 0)" stroke="rgb(204, 204, 204)" stroke-width="1px"></line><line x1="149.93333333333334" y1="0" x2="149.93333333333334" y2="5" style="visibility: inherit;" fill="rgb(0, 0, 0)" stroke="rgb(204, 204, 204)" stroke-width="1px"></line><line x1="168.67499999999998" y1="0" x2="168.67499999999998" y2="5" style="visibility: inherit;" fill="rgb(0, 0, 0)" stroke="rgb(204, 204, 204)" stroke-width="1px"></line><line x1="187.41666666666666" y1="0" x2="187.41666666666666" y2="5" style="visibility: inherit;" fill="rgb(0, 0, 0)" stroke="rgb(204, 204, 204)" stroke-width="1px"></line><line x1="206.15833333333333" y1="0" x2="206.15833333333333" y2="5" style="visibility: inherit;" fill="rgb(0, 0, 0)" stroke="rgb(204, 204, 204)" stroke-width="1px"></line><line x1="224.9" y1="0" x2="224.9" y2="5" style="visibility: inherit;" fill="rgb(0, 0, 0)" stroke="rgb(204, 204, 204)" stroke-width="1px"></line><line x1="243.64166666666668" y1="0" x2="243.64166666666668" y2="5" style="visibility: inherit;" fill="rgb(0, 0, 0)" stroke="rgb(204, 204, 204)" stroke-width="1px"></line><line x1="262.3833333333333" y1="0" x2="262.3833333333333" y2="5" style="visibility: inherit;" fill="rgb(0, 0, 0)" stroke="rgb(204, 204, 204)" stroke-width="1px"></line><line x1="281.125" y1="0" x2="281.125" y2="5" style="visibility: inherit;" fill="rgb(0, 0, 0)" stroke="rgb(204, 204, 204)" stroke-width="1px"></line></g><g transform="translate(0, 8)"><text x="0" y="0" dx="0em" dy="0.95em" style="text-anchor: middle; visibility: hidden; font-family: &quot;Helvetica Neue&quot;, sans-serif; font-size: 12px; font-weight: 200;" fill="rgb(50, 49, 63)" stroke="none" stroke-width="1px">-20</text><text x="18.741666666666667" y="0" dx="0em" dy="0.95em" style="text-anchor: middle; visibility: inherit; font-family: &quot;Helvetica Neue&quot;, sans-serif; font-size: 12px; font-weight: 200;" fill="rgb(50, 49, 63)" stroke="none" stroke-width="1px">0</text><text x="37.483333333333334" y="0" dx="0em" dy="0.95em" style="text-anchor: middle; visibility: hidden; font-family: &quot;Helvetica Neue&quot;, sans-serif; font-size: 12px; font-weight: 200;" fill="rgb(50, 49, 63)" stroke="none" stroke-width="1px">20</text><text x="56.225" y="0" dx="0em" dy="0.95em" style="text-anchor: middle; visibility: inherit; font-family: &quot;Helvetica Neue&quot;, sans-serif; font-size: 12px; font-weight: 200;" fill="rgb(50, 49, 63)" stroke="none" stroke-width="1px">40</text><text x="74.96666666666667" y="0" dx="0em" dy="0.95em" style="text-anchor: middle; visibility: hidden; font-family: &quot;Helvetica Neue&quot;, sans-serif; font-size: 12px; font-weight: 200;" fill="rgb(50, 49, 63)" stroke="none" stroke-width="1px">60</text><text x="93.70833333333333" y="0" dx="0em" dy="0.95em" style="text-anchor: middle; visibility: inherit; font-family: &quot;Helvetica Neue&quot;, sans-serif; font-size: 12px; font-weight: 200;" fill="rgb(50, 49, 63)" stroke="none" stroke-width="1px">80</text><text x="112.45" y="0" dx="0em" dy="0.95em" style="text-anchor: middle; visibility: hidden; font-family: &quot;Helvetica Neue&quot;, sans-serif; font-size: 12px; font-weight: 200;" fill="rgb(50, 49, 63)" stroke="none" stroke-width="1px">100</text><text x="131.19166666666666" y="0" dx="0em" dy="0.95em" style="text-anchor: middle; visibility: inherit; font-family: &quot;Helvetica Neue&quot;, sans-serif; font-size: 12px; font-weight: 200;" fill="rgb(50, 49, 63)" stroke="none" stroke-width="1px">120</text><text x="149.93333333333334" y="0" dx="0em" dy="0.95em" style="text-anchor: middle; visibility: hidden; font-family: &quot;Helvetica Neue&quot;, sans-serif; font-size: 12px; font-weight: 200;" fill="rgb(50, 49, 63)" stroke="none" stroke-width="1px">140</text><text x="168.67499999999998" y="0" dx="0em" dy="0.95em" style="text-anchor: middle; visibility: inherit; font-family: &quot;Helvetica Neue&quot;, sans-serif; font-size: 12px; font-weight: 200;" fill="rgb(50, 49, 63)" stroke="none" stroke-width="1px">160</text><text x="187.41666666666666" y="0" dx="0em" dy="0.95em" style="text-anchor: middle; visibility: hidden; font-family: &quot;Helvetica Neue&quot;, sans-serif; font-size: 12px; font-weight: 200;" fill="rgb(50, 49, 63)" stroke="none" stroke-width="1px">180</text><text x="206.15833333333333" y="0" dx="0em" dy="0.95em" style="text-anchor: middle; visibility: inherit; font-family: &quot;Helvetica Neue&quot;, sans-serif; font-size: 12px; font-weight: 200;" fill="rgb(50, 49, 63)" stroke="none" stroke-width="1px">200</text><text x="224.9" y="0" dx="0em" dy="0.95em" style="text-anchor: middle; visibility: hidden; font-family: &quot;Helvetica Neue&quot;, sans-serif; font-size: 12px; font-weight: 200;" fill="rgb(50, 49, 63)" stroke="none" stroke-width="1px">220</text><text x="243.64166666666668" y="0" dx="0em" dy="0.95em" style="text-anchor: middle; visibility: inherit; font-family: &quot;Helvetica Neue&quot;, sans-serif; font-size: 12px; font-weight: 200;" fill="rgb(50, 49, 63)" stroke="none" stroke-width="1px">240</text><text x="262.3833333333333" y="0" dx="0em" dy="0.95em" style="text-anchor: middle; visibility: hidden; font-family: &quot;Helvetica Neue&quot;, sans-serif; font-size: 12px; font-weight: 200;" fill="rgb(50, 49, 63)" stroke="none" stroke-width="1px">260</text><text x="281.125" y="0" dx="0em" dy="0.95em" style="text-anchor: middle; visibility: hidden; font-family: &quot;Helvetica Neue&quot;, sans-serif; font-size: 12px; font-weight: 200;" fill="rgb(50, 49, 63)" stroke="none" stroke-width="1px">280</text></g><line x1="0" y1="0" x2="281.125" y2="0" fill="rgb(0, 0, 0)" stroke="rgb(204, 204, 204)" stroke-width="1px"></line></g></g></g></g></svg>